<svg id="svg" version="1.1" xmlns="http://www.w3.org/2000/svg" xmlns:xlink="http://www.w3.org/1999/xlink" width="400" height="402.2038567493113" viewBox="0, 0, 400,402.2038567493113"><g id="svgg"><path id="path0" d="M353.373 116.282 C 351.309 119.803,343.389 127.898,338.243 131.745 C 334.787 134.328,328.915 137.999,328.234 138.002 C 325.909 138.011,312.711 146.641,307.744 151.400 C 298.165 160.579,295.367 175.697,300.437 190.887 C 300.856 192.145,301.200 193.515,301.200 193.931 C 301.200 194.874,295.544 200.685,288.200 207.286 C 279.345 215.245,277.792 217.281,282.719 214.469 C 283.973 213.752,286.620 212.356,288.600 211.365 C 303.078 204.122,311.740 195.462,327.060 172.919 C 329.825 168.850,334.400 161.386,334.400 160.945 C 334.400 160.790,334.654 160.379,334.965 160.031 C 335.839 159.056,341.200 148.933,341.200 148.259 C 341.200 147.447,343.136 145.200,343.836 145.200 C 344.541 145.200,344.612 148.056,343.937 149.317 C 343.500 150.135,343.304 150.790,342.357 154.600 C 341.398 158.460,335.044 173.042,333.381 175.200 C 333.127 175.530,332.487 176.601,331.959 177.580 C 327.798 185.303,314.692 202.359,310.854 205.047 C 308.459 206.725,312.148 207.487,320.759 207.092 C 339.353 206.241,351.761 195.227,356.745 175.149 C 359.270 164.979,359.388 163.811,359.394 149.000 C 359.401 132.775,359.185 130.802,355.709 115.300 C 355.392 113.890,354.573 114.235,353.373 116.282 M146.745 159.788 C 146.642 159.892,143.147 160.155,138.978 160.374 C 134.810 160.593,130.050 160.958,128.400 161.186 C 126.750 161.414,123.780 161.782,121.800 162.002 C 113.725 162.902,107.668 163.642,105.400 164.008 C 104.080 164.220,101.954 164.395,100.675 164.397 C 99.396 164.399,96.516 164.662,94.275 164.982 C 92.034 165.302,87.770 165.856,84.800 166.213 C 81.830 166.570,77.510 167.106,75.200 167.405 C 72.890 167.704,69.470 168.057,67.600 168.190 C 65.730 168.323,62.310 168.686,60.000 168.997 C 53.469 169.875,46.615 170.708,41.800 171.207 C 31.023 172.325,30.985 173.486,41.447 181.853 C 44.941 184.648,48.520 187.519,49.400 188.234 C 53.664 191.700,59.572 196.313,61.003 197.295 C 61.881 197.896,63.950 199.383,65.600 200.598 C 67.250 201.814,69.770 203.628,71.200 204.629 C 72.630 205.631,74.880 207.245,76.200 208.216 C 77.520 209.186,79.770 210.796,81.200 211.794 C 82.630 212.791,85.330 214.694,87.200 216.022 C 89.070 217.350,91.410 218.997,92.400 219.681 C 93.390 220.366,95.524 221.843,97.142 222.963 C 98.760 224.083,101.040 225.630,102.208 226.400 C 107.110 229.629,109.502 231.221,111.200 232.383 C 113.657 234.064,117.931 236.912,118.728 237.400 C 119.088 237.620,120.556 238.541,121.991 239.446 C 128.559 243.590,133.056 245.540,139.000 246.820 C 141.187 247.292,149.834 247.270,151.800 246.789 C 152.680 246.574,156.550 245.945,160.400 245.393 C 167.020 244.444,172.015 243.538,178.057 242.192 C 179.519 241.866,181.282 241.600,181.975 241.600 C 182.668 241.600,184.353 241.335,185.718 241.010 C 190.581 239.855,197.437 238.359,199.800 237.939 C 201.120 237.704,205.080 236.791,208.600 235.909 C 212.120 235.028,215.810 234.160,216.800 233.981 C 217.790 233.802,220.310 233.184,222.400 232.609 C 224.490 232.034,227.730 231.193,229.600 230.740 C 231.470 230.288,234.890 229.377,237.200 228.717 C 239.510 228.057,243.110 227.088,245.200 226.564 C 249.981 225.366,259.324 221.932,259.253 221.400 C 259.223 221.180,257.714 220.612,255.900 220.139 C 249.602 218.495,239.226 214.585,234.200 211.962 C 233.320 211.503,231.360 210.489,229.846 209.708 C 226.655 208.066,216.624 201.385,212.730 198.309 C 211.262 197.149,208.292 194.756,206.130 192.992 C 203.969 191.228,201.750 189.468,201.200 189.082 C 200.650 188.696,199.300 187.647,198.200 186.752 C 197.100 185.856,193.410 183.038,190.000 180.490 C 186.590 177.941,183.710 175.753,183.600 175.628 C 183.490 175.503,183.105 175.220,182.745 175.000 C 182.017 174.555,174.504 169.198,170.671 166.390 C 168.240 164.610,164.144 162.458,161.000 161.310 C 158.564 160.420,147.314 159.220,146.745 159.788 M69.420 221.300 C 69.335 221.575,69.160 222.610,69.030 223.600 C 68.900 224.590,68.524 227.470,68.195 230.000 C 67.867 232.530,67.424 235.590,67.212 236.800 C 67.000 238.010,66.640 241.070,66.414 243.600 C 66.187 246.130,65.727 250.270,65.391 252.800 C 63.949 263.664,63.924 264.016,64.345 267.134 C 65.792 277.841,75.560 290.075,90.400 299.770 C 92.710 301.279,95.050 302.813,95.600 303.180 C 98.536 305.135,111.383 310.600,115.400 311.603 C 126.212 314.301,133.404 315.292,142.000 315.265 C 146.299 315.252,157.307 314.228,158.044 313.773 C 158.180 313.689,160.430 313.167,163.045 312.612 C 165.660 312.057,169.240 311.050,171.000 310.373 C 172.760 309.695,174.784 308.966,175.498 308.752 C 176.213 308.538,179.046 307.294,181.796 305.986 C 195.879 299.290,199.330 293.674,203.170 271.200 C 203.602 268.670,204.337 264.890,204.804 262.800 C 206.340 255.919,207.189 250.629,206.816 250.256 C 206.490 249.930,202.433 250.693,196.600 252.180 C 195.500 252.460,193.250 252.979,191.600 253.333 C 182.267 255.336,180.436 255.751,178.800 256.234 C 177.810 256.527,174.930 257.145,172.400 257.607 C 169.870 258.069,166.630 258.695,165.200 258.998 C 140.304 264.276,134.376 263.379,116.600 251.643 C 112.420 248.883,108.697 246.440,108.326 246.213 C 107.956 245.986,105.814 244.540,103.567 243.000 C 98.964 239.845,97.136 238.620,90.942 234.541 C 88.554 232.969,85.790 231.120,84.800 230.431 C 83.810 229.743,81.020 227.899,78.600 226.333 C 76.180 224.767,73.287 222.882,72.171 222.143 C 69.926 220.657,69.646 220.571,69.420 221.300 " stroke="none" fill="#13698a" fill-rule="evenodd"></path><path id="path1" d="M188.000 63.453 C 178.356 64.167,162.679 67.134,154.600 69.776 C 153.720 70.063,152.280 70.523,151.400 70.797 C 141.943 73.745,127.979 80.494,118.400 86.748 C 99.920 98.812,81.633 117.928,72.154 135.090 C 67.992 142.625,66.981 144.597,64.072 150.853 C 62.984 153.192,62.224 155.316,62.383 155.572 C 62.598 155.920,66.352 155.581,77.036 154.251 C 84.936 153.267,92.930 152.348,94.800 152.209 C 96.670 152.069,100.180 151.704,102.600 151.397 C 107.319 150.799,115.798 149.784,121.000 149.193 C 122.760 148.993,125.640 148.722,127.400 148.590 C 129.160 148.459,133.480 147.985,137.000 147.538 C 154.095 145.366,167.633 147.819,177.373 154.852 C 183.048 158.950,185.720 161.041,192.800 166.921 C 218.037 187.883,236.462 199.998,251.000 205.189 C 259.314 208.157,267.529 210.423,269.913 210.406 C 273.430 210.382,282.067 202.231,285.600 195.604 C 285.892 195.056,287.034 193.366,288.137 191.850 L 290.143 189.092 289.682 187.046 C 289.428 185.921,288.820 183.380,288.330 181.400 C 286.247 172.985,287.548 159.708,291.035 153.800 C 291.554 152.920,292.327 151.565,292.752 150.789 C 295.443 145.879,307.894 135.596,318.217 129.757 C 319.437 129.067,319.374 128.098,318.003 126.484 C 317.309 125.668,315.360 123.175,313.671 120.945 C 301.287 104.595,283.332 89.009,268.000 81.302 C 267.010 80.805,265.210 79.865,264.000 79.215 C 261.576 77.912,254.128 74.400,253.789 74.400 C 253.672 74.400,251.286 73.517,248.488 72.437 C 231.084 65.722,206.564 62.080,188.000 63.453 M339.627 214.257 C 333.604 217.005,318.321 217.999,309.000 216.248 C 303.742 215.261,303.294 215.278,301.292 216.542 C 298.885 218.061,288.713 223.600,288.329 223.600 C 288.154 223.600,286.343 224.394,284.305 225.365 C 277.860 228.435,269.677 231.651,262.600 233.897 C 261.500 234.246,257.960 235.402,254.733 236.466 C 251.507 237.530,248.633 238.400,248.347 238.400 C 248.061 238.400,244.941 239.195,241.414 240.166 C 237.886 241.138,232.030 242.592,228.400 243.399 C 220.462 245.162,220.712 244.954,219.443 250.800 C 218.229 256.386,215.418 270.781,214.815 274.501 C 211.749 293.387,207.524 301.939,197.200 310.150 C 194.813 312.048,187.299 316.800,186.684 316.800 C 186.539 316.800,185.111 317.445,183.511 318.234 C 164.810 327.451,135.212 330.531,115.600 325.303 C 107.045 323.022,107.427 323.875,118.030 330.731 C 132.651 340.186,149.588 347.501,163.796 350.497 C 179.990 353.912,181.628 354.088,197.400 354.102 C 215.745 354.119,226.640 352.535,242.079 347.610 C 278.903 335.862,310.130 309.361,327.403 275.200 C 328.237 273.550,329.150 271.750,329.432 271.200 C 330.694 268.736,333.372 262.351,334.213 259.800 C 334.721 258.260,335.597 255.768,336.160 254.263 C 339.286 245.908,342.254 230.062,343.046 217.500 C 343.361 212.516,343.388 212.541,339.627 214.257 " stroke="none" fill="#94c323" fill-rule="evenodd"></path><path id="path2" d="M179.500 10.277 C 178.015 10.365,176.800 10.608,176.800 10.818 C 176.800 11.028,176.125 11.203,175.300 11.206 C 174.475 11.209,173.080 11.471,172.200 11.788 C 171.260 12.127,169.069 12.372,166.887 12.382 C 163.968 12.396,163.126 12.528,162.945 13.000 C 162.771 13.452,162.044 13.600,160.004 13.600 C 157.630 13.600,157.267 13.699,157.084 14.400 C 156.906 15.080,156.538 15.200,154.637 15.200 C 152.915 15.200,152.400 15.338,152.400 15.800 C 152.400 16.269,151.855 16.400,149.896 16.400 C 147.826 16.400,147.306 16.538,146.893 17.200 C 146.533 17.777,145.960 18.000,144.839 18.000 C 143.827 18.000,143.205 18.209,143.055 18.600 C 142.903 18.996,142.277 19.200,141.213 19.200 C 140.326 19.200,139.600 19.357,139.600 19.548 C 139.600 19.739,138.783 19.988,137.784 20.101 C 136.785 20.213,135.646 20.597,135.252 20.953 C 134.859 21.309,134.065 21.600,133.488 21.600 C 132.912 21.600,132.296 21.857,132.120 22.170 C 131.944 22.484,131.121 22.799,130.292 22.870 C 129.462 22.942,128.800 23.173,128.821 23.384 C 128.872 23.899,127.684 24.337,126.143 24.372 C 125.415 24.388,124.789 24.653,124.655 25.000 C 124.520 25.353,123.920 25.600,123.200 25.600 C 122.480 25.600,121.880 25.847,121.745 26.200 C 121.616 26.534,121.022 26.800,120.404 26.800 C 119.630 26.800,119.230 27.042,119.084 27.600 C 118.931 28.185,118.538 28.400,117.625 28.400 C 116.883 28.400,116.281 28.644,116.145 29.000 C 116.018 29.330,115.527 29.600,115.053 29.600 C 114.580 29.600,113.968 29.960,113.693 30.400 C 113.418 30.840,112.835 31.200,112.397 31.200 C 111.955 31.200,111.600 31.468,111.600 31.800 C 111.600 32.219,111.178 32.400,110.200 32.400 C 109.430 32.400,108.800 32.580,108.800 32.800 C 108.800 33.020,108.537 33.200,108.216 33.200 C 107.894 33.200,107.309 33.535,106.916 33.944 C 106.522 34.353,105.705 34.806,105.100 34.951 C 104.495 35.096,104.000 35.392,104.000 35.608 C 104.000 35.823,103.556 36.000,103.014 36.000 C 102.438 36.000,101.850 36.332,101.600 36.800 C 101.365 37.240,100.903 37.600,100.573 37.600 C 100.244 37.600,99.871 37.870,99.745 38.200 C 99.618 38.530,99.078 38.800,98.545 38.800 C 98.011 38.800,97.471 39.070,97.345 39.400 C 97.218 39.730,96.757 40.000,96.320 40.000 C 95.862 40.000,95.437 40.339,95.316 40.800 C 95.201 41.240,94.877 41.600,94.596 41.600 C 94.315 41.600,93.982 41.870,93.855 42.200 C 93.729 42.530,93.176 42.800,92.627 42.800 C 92.038 42.800,91.453 43.128,91.200 43.600 C 90.965 44.040,90.508 44.400,90.186 44.400 C 89.864 44.400,89.600 44.670,89.600 45.000 C 89.600 45.333,89.244 45.600,88.800 45.600 C 88.360 45.600,88.000 45.768,88.000 45.973 C 88.000 46.178,87.595 46.474,87.100 46.630 C 86.605 46.787,85.965 47.249,85.677 47.657 C 85.390 48.066,84.895 48.400,84.577 48.400 C 84.260 48.400,84.000 48.580,84.000 48.800 C 84.000 49.020,83.713 49.200,83.363 49.200 C 83.012 49.200,82.631 49.560,82.516 50.000 C 82.401 50.440,81.987 50.800,81.596 50.800 C 81.205 50.800,80.782 51.070,80.655 51.400 C 80.529 51.730,80.149 52.000,79.813 52.000 C 79.476 52.000,79.200 52.249,79.200 52.553 C 79.200 52.858,78.835 53.202,78.389 53.319 C 77.942 53.436,77.627 53.761,77.689 54.042 C 77.750 54.323,77.469 54.625,77.064 54.713 C 76.220 54.896,74.800 56.205,74.800 56.800 C 74.800 57.020,74.536 57.200,74.214 57.200 C 73.892 57.200,73.435 57.560,73.200 58.000 C 72.965 58.440,72.551 58.800,72.282 58.800 C 71.730 58.800,70.100 60.258,69.212 61.547 C 68.888 62.016,68.416 62.400,68.163 62.400 C 67.910 62.400,67.275 63.029,66.752 63.797 C 66.228 64.566,65.575 65.196,65.300 65.197 C 65.025 65.199,64.800 65.449,64.800 65.753 C 64.800 66.058,64.440 66.401,64.000 66.516 C 63.560 66.631,63.200 67.012,63.200 67.363 C 63.200 67.713,62.930 68.000,62.600 68.000 C 62.270 68.000,62.000 68.249,62.000 68.553 C 62.000 68.858,61.640 69.201,61.200 69.316 C 60.760 69.431,60.400 69.812,60.400 70.163 C 60.400 70.513,60.130 70.800,59.800 70.800 C 59.470 70.800,59.200 71.070,59.200 71.400 C 59.200 71.730,59.041 72.000,58.847 72.000 C 58.652 72.000,57.887 72.804,57.147 73.788 C 56.406 74.771,55.575 75.581,55.300 75.588 C 55.025 75.594,54.800 75.851,54.800 76.157 C 54.800 76.464,54.530 76.818,54.200 76.945 C 53.870 77.071,53.600 77.451,53.600 77.787 C 53.600 78.124,53.420 78.400,53.200 78.400 C 52.980 78.400,52.800 78.649,52.800 78.953 C 52.800 79.258,52.422 79.606,51.960 79.726 C 51.463 79.856,51.234 80.132,51.400 80.400 C 51.566 80.668,51.337 80.944,50.840 81.074 C 50.378 81.194,50.000 81.508,50.000 81.771 C 50.000 82.034,49.640 82.636,49.200 83.108 C 48.760 83.580,48.400 84.244,48.400 84.583 C 48.400 84.922,48.130 85.200,47.800 85.200 C 47.470 85.200,47.200 85.470,47.200 85.800 C 47.200 86.130,47.011 86.400,46.779 86.400 C 46.548 86.400,46.175 86.926,45.951 87.568 C 45.727 88.210,45.287 88.835,44.972 88.955 C 44.657 89.076,44.400 89.418,44.400 89.716 C 44.400 90.013,43.770 90.758,43.000 91.372 C 42.230 91.986,41.600 92.837,41.600 93.263 C 41.600 93.690,41.192 94.435,40.694 94.919 C 40.196 95.404,39.522 96.340,39.195 97.000 C 38.868 97.660,38.376 98.344,38.101 98.520 C 37.825 98.696,37.599 99.146,37.598 99.520 C 37.597 99.894,37.102 100.740,36.498 101.400 C 35.894 102.060,35.339 102.960,35.264 103.400 C 35.189 103.840,34.910 104.470,34.643 104.800 C 34.376 105.130,33.807 106.155,33.379 107.078 C 32.950 108.001,32.285 108.839,31.900 108.941 C 31.431 109.064,31.200 109.519,31.200 110.320 C 31.200 111.013,30.948 111.611,30.600 111.745 C 30.257 111.876,30.000 112.473,30.000 113.141 C 30.000 113.970,29.769 114.367,29.200 114.516 C 28.617 114.668,28.400 115.062,28.400 115.963 C 28.400 116.796,28.204 117.200,27.800 117.200 C 27.400 117.200,27.200 117.600,27.200 118.400 C 27.200 119.060,27.065 119.601,26.900 119.601 C 26.646 119.603,25.915 120.911,23.944 124.895 C 23.755 125.277,23.600 126.008,23.600 126.519 C 23.600 127.031,23.237 127.839,22.794 128.315 C 22.350 128.791,21.876 129.995,21.739 130.990 C 21.603 131.986,21.336 132.800,21.146 132.800 C 20.956 132.800,20.800 133.330,20.800 133.977 C 20.800 134.717,20.490 135.372,19.966 135.739 C 19.368 136.157,19.153 136.702,19.207 137.661 C 19.321 139.716,19.247 140.000,18.600 140.000 C 18.156 140.000,18.000 140.467,18.000 141.800 C 18.000 143.059,17.835 143.600,17.451 143.600 C 17.082 143.600,16.837 144.275,16.704 145.654 C 16.577 146.983,16.276 147.838,15.854 148.074 C 15.373 148.343,15.200 149.019,15.200 150.620 C 15.200 152.291,15.060 152.800,14.600 152.800 C 14.152 152.800,14.000 153.274,14.000 154.669 C 14.000 155.861,13.756 156.807,13.324 157.283 C 12.899 157.754,12.584 158.950,12.473 160.515 C 12.376 161.882,12.103 163.123,11.866 163.274 C 11.630 163.425,11.291 165.405,11.114 167.674 C 10.569 174.665,10.351 176.044,9.759 176.271 C 8.934 176.587,8.921 225.797,9.746 226.280 C 10.342 226.630,10.681 228.790,11.141 235.174 C 11.332 237.824,11.616 239.405,11.921 239.507 C 12.213 239.604,12.400 240.498,12.400 241.801 C 12.400 244.303,12.675 245.200,13.443 245.200 C 13.846 245.200,14.000 245.761,14.000 247.229 C 14.000 248.498,14.224 249.482,14.600 249.857 C 14.934 250.192,15.200 251.169,15.200 252.065 C 15.200 253.068,15.501 254.057,16.000 254.691 C 16.440 255.250,16.800 256.294,16.800 257.011 C 16.800 257.801,17.037 258.405,17.400 258.545 C 17.808 258.701,18.000 259.341,18.000 260.545 C 18.000 261.749,18.192 262.388,18.600 262.545 C 19.023 262.707,19.200 263.368,19.200 264.787 C 19.200 266.533,19.306 266.800,20.000 266.800 C 20.648 266.800,20.800 267.067,20.800 268.200 C 20.800 268.970,20.957 269.600,21.148 269.600 C 21.340 269.600,21.617 270.506,21.764 271.614 C 21.914 272.742,22.200 273.523,22.416 273.390 C 22.627 273.260,22.800 273.433,22.800 273.776 C 22.800 274.119,22.980 274.400,23.200 274.400 C 23.420 274.400,23.600 275.030,23.600 275.800 C 23.600 276.570,23.780 277.200,24.000 277.200 C 24.220 277.200,24.400 277.637,24.400 278.171 C 24.400 278.706,24.661 279.404,24.980 279.723 C 25.299 280.042,25.677 280.768,25.819 281.335 C 25.962 281.903,26.331 282.577,26.639 282.833 C 26.948 283.089,27.200 283.803,27.200 284.420 C 27.200 285.154,27.685 286.058,28.600 287.027 C 29.385 287.860,30.000 288.926,30.000 289.456 C 30.000 290.028,30.236 290.400,30.600 290.400 C 30.998 290.400,31.200 290.798,31.200 291.580 C 31.200 292.229,31.443 292.904,31.740 293.080 C 32.271 293.395,33.334 295.129,33.837 296.500 C 33.978 296.885,34.238 297.200,34.415 297.200 C 34.592 297.200,34.852 297.728,34.994 298.372 C 35.136 299.017,35.518 299.766,35.843 300.036 C 36.168 300.306,36.877 301.494,37.418 302.676 C 37.958 303.858,38.671 304.929,39.000 305.055 C 39.330 305.182,39.600 305.536,39.600 305.843 C 39.600 306.149,39.780 306.400,40.000 306.400 C 40.220 306.400,40.400 306.676,40.400 307.013 C 40.400 307.349,40.670 307.729,41.000 307.855 C 41.330 307.982,41.600 308.533,41.600 309.080 C 41.600 309.738,41.871 310.146,42.400 310.284 C 42.840 310.399,43.200 310.748,43.200 311.059 C 43.200 311.370,43.470 311.729,43.800 311.855 C 44.130 311.982,44.400 312.443,44.400 312.880 C 44.400 313.338,44.739 313.763,45.200 313.884 C 45.643 314.000,46.000 314.430,46.000 314.847 C 46.000 315.261,46.270 315.600,46.600 315.600 C 46.930 315.600,47.200 315.932,47.200 316.338 C 47.200 316.744,47.560 317.402,48.000 317.800 C 48.440 318.198,48.800 318.766,48.800 319.062 C 48.800 319.358,49.070 319.600,49.400 319.600 C 49.730 319.600,50.000 319.851,50.000 320.157 C 50.000 320.464,50.270 320.818,50.600 320.945 C 50.930 321.071,51.200 321.370,51.200 321.609 C 51.200 321.848,51.740 322.619,52.401 323.322 C 53.062 324.025,53.691 324.870,53.799 325.200 C 53.907 325.530,54.536 326.160,55.197 326.600 C 55.857 327.040,56.398 327.554,56.399 327.743 C 56.399 327.931,57.300 328.930,58.400 329.963 C 59.500 330.996,60.400 332.057,60.400 332.320 C 60.400 332.584,60.670 332.800,61.000 332.800 C 61.330 332.800,61.600 332.971,61.600 333.179 C 61.600 333.730,63.412 335.600,63.946 335.600 C 64.196 335.600,64.400 335.799,64.400 336.043 C 64.400 336.481,68.132 340.400,68.549 340.400 C 68.921 340.400,70.800 342.418,70.800 342.818 C 70.800 343.028,71.160 343.200,71.600 343.200 C 72.044 343.200,72.400 343.467,72.400 343.800 C 72.400 344.130,72.670 344.400,73.000 344.400 C 73.330 344.400,73.600 344.687,73.600 345.037 C 73.600 345.388,73.960 345.769,74.400 345.884 C 74.840 345.999,75.200 346.342,75.200 346.647 C 75.200 346.951,75.425 347.201,75.700 347.202 C 75.975 347.203,76.885 347.833,77.722 348.602 C 78.560 349.371,79.375 350.000,79.533 350.000 C 79.692 350.000,80.126 350.315,80.497 350.700 C 81.817 352.069,82.671 352.800,82.950 352.800 C 83.280 352.800,84.176 353.503,85.117 354.500 C 85.480 354.885,85.989 355.200,86.246 355.200 C 86.504 355.200,86.818 355.470,86.945 355.800 C 87.071 356.130,87.546 356.400,88.000 356.400 C 88.454 356.400,88.929 356.670,89.055 357.000 C 89.182 357.330,89.626 357.600,90.043 357.600 C 90.533 357.600,90.800 357.882,90.800 358.400 C 90.800 358.987,91.067 359.200,91.800 359.200 C 92.422 359.200,92.800 359.427,92.800 359.800 C 92.800 360.130,93.117 360.400,93.504 360.400 C 93.891 360.400,94.432 360.760,94.707 361.200 C 94.982 361.640,95.565 362.000,96.003 362.000 C 96.445 362.000,96.800 362.268,96.800 362.600 C 96.800 362.930,97.087 363.200,97.437 363.200 C 97.787 363.200,98.531 363.560,99.091 364.000 C 99.650 364.440,100.354 364.800,100.654 364.800 C 100.954 364.800,101.155 365.025,101.100 365.300 C 101.044 365.579,101.474 365.855,102.071 365.924 C 102.660 365.992,103.357 366.307,103.620 366.624 C 103.883 366.941,104.436 367.200,104.849 367.200 C 105.262 367.200,105.600 367.362,105.600 367.560 C 105.600 368.134,108.349 369.600,109.423 369.600 C 110.025 369.600,110.400 369.830,110.400 370.200 C 110.400 370.573,110.777 370.800,111.397 370.800 C 111.960 370.800,112.610 371.148,112.893 371.600 C 113.168 372.040,113.687 372.400,114.047 372.400 C 114.407 372.400,114.926 372.670,115.200 373.000 C 115.474 373.330,116.081 373.603,116.549 373.606 C 117.581 373.614,118.518 374.159,118.334 374.645 C 118.260 374.840,118.785 375.056,119.500 375.125 C 120.305 375.203,120.800 375.469,120.800 375.825 C 120.800 376.192,121.217 376.400,121.951 376.400 C 122.584 376.400,123.310 376.650,123.564 376.957 C 123.818 377.263,124.826 377.633,125.805 377.780 C 126.856 377.937,127.547 378.242,127.492 378.523 C 127.438 378.806,127.998 379.050,128.870 379.122 C 129.678 379.190,130.555 379.505,130.819 379.822 C 131.082 380.140,131.822 380.400,132.462 380.400 C 133.101 380.400,133.723 380.655,133.843 380.967 C 133.967 381.290,134.906 381.650,136.030 381.804 C 137.113 381.953,138.000 382.230,138.000 382.419 C 138.000 382.609,138.675 382.872,139.500 383.004 C 140.325 383.136,141.313 383.414,141.695 383.622 C 142.077 383.830,142.898 384.000,143.519 384.000 C 144.141 384.000,145.036 384.360,145.508 384.800 C 146.126 385.376,146.919 385.600,148.340 385.600 C 149.726 385.600,150.383 385.779,150.545 386.200 C 150.703 386.611,151.346 386.800,152.591 386.800 C 153.913 386.800,154.594 387.018,155.093 387.600 C 155.643 388.242,156.273 388.400,158.289 388.400 C 160.084 388.400,160.772 388.542,160.700 388.900 C 160.628 389.262,161.706 389.462,164.600 389.625 C 166.800 389.749,168.993 390.064,169.474 390.325 C 169.954 390.586,170.974 390.800,171.740 390.800 C 172.506 390.800,173.208 391.025,173.300 391.300 C 173.544 392.032,226.856 392.032,227.100 391.300 C 227.192 391.025,227.747 390.797,228.333 390.794 C 228.920 390.791,230.120 390.529,231.000 390.212 C 231.880 389.895,234.076 389.627,235.880 389.618 C 238.312 389.605,239.244 389.450,239.484 389.022 C 239.699 388.637,240.644 388.402,242.308 388.322 C 243.683 388.255,244.791 388.040,244.770 387.845 C 244.700 387.199,245.775 386.812,247.657 386.806 C 248.935 386.802,249.586 386.613,249.745 386.200 C 249.909 385.771,250.580 385.600,252.099 385.600 C 253.765 385.600,254.348 385.427,254.800 384.800 C 255.199 384.247,255.835 384.000,256.865 384.000 C 257.683 384.000,258.449 383.844,258.568 383.653 C 258.686 383.461,259.506 383.189,260.391 383.048 C 261.276 382.906,262.000 382.636,262.000 382.447 C 262.000 382.259,262.800 382.014,263.777 381.904 C 264.754 381.794,265.847 381.410,266.205 381.052 C 266.564 380.693,267.281 380.400,267.800 380.400 C 268.319 380.400,269.013 380.130,269.343 379.800 C 269.673 379.470,270.391 379.200,270.939 379.200 C 272.443 379.200,273.391 378.765,272.750 378.369 C 272.430 378.171,273.040 377.943,274.351 377.769 C 275.546 377.610,276.559 377.251,276.677 376.944 C 276.792 376.645,277.412 376.400,278.055 376.400 C 278.726 376.400,279.323 376.144,279.455 375.800 C 279.582 375.470,280.110 375.200,280.629 375.200 C 281.162 375.200,281.758 374.853,282.000 374.400 C 282.282 373.873,282.838 373.600,283.627 373.600 C 284.323 373.600,284.922 373.349,285.055 373.000 C 285.182 372.670,285.673 372.400,286.147 372.400 C 286.620 372.400,287.232 372.040,287.507 371.600 C 287.782 371.160,288.365 370.800,288.803 370.800 C 289.245 370.800,289.600 370.532,289.600 370.200 C 289.600 369.781,290.022 369.600,291.000 369.600 C 291.770 369.600,292.400 369.423,292.400 369.208 C 292.400 368.992,292.850 368.702,293.400 368.564 C 293.950 368.426,294.400 368.169,294.400 367.992 C 294.400 367.694,296.873 366.410,298.525 365.851 C 298.924 365.716,299.148 365.439,299.022 365.235 C 298.896 365.032,299.334 364.746,299.994 364.601 C 300.655 364.456,301.331 364.102,301.498 363.813 C 301.664 363.525,302.160 363.213,302.600 363.121 C 303.040 363.028,303.362 362.759,303.316 362.523 C 303.269 362.287,303.764 361.987,304.416 361.857 C 305.107 361.719,305.600 361.366,305.600 361.010 C 305.600 360.667,305.950 360.400,306.400 360.400 C 306.844 360.400,307.200 360.133,307.200 359.800 C 307.200 359.427,307.578 359.200,308.200 359.200 C 308.933 359.200,309.200 358.987,309.200 358.400 C 309.200 357.884,309.467 357.600,309.951 357.600 C 310.364 357.600,310.926 357.330,311.200 357.000 C 311.474 356.670,311.952 356.400,312.262 356.400 C 312.573 356.400,313.355 355.860,314.000 355.200 C 314.645 354.540,315.350 354.000,315.567 354.000 C 315.783 354.000,316.104 353.750,316.280 353.445 C 316.456 353.139,316.960 352.822,317.400 352.739 C 317.840 352.657,318.192 352.412,318.182 352.195 C 318.173 351.978,318.938 351.288,319.882 350.662 C 320.827 350.037,321.600 349.362,321.600 349.162 C 321.600 348.963,321.960 348.800,322.400 348.800 C 322.865 348.800,323.200 348.533,323.200 348.163 C 323.200 347.812,323.560 347.431,324.000 347.316 C 324.440 347.201,324.800 346.879,324.800 346.600 C 324.800 346.321,325.160 345.999,325.600 345.884 C 326.040 345.769,326.400 345.388,326.400 345.037 C 326.400 344.687,326.670 344.400,327.000 344.400 C 327.330 344.400,327.600 344.130,327.600 343.800 C 327.600 343.470,327.861 343.200,328.179 343.200 C 328.884 343.200,330.800 341.485,330.800 340.854 C 330.800 340.604,331.070 340.400,331.400 340.400 C 331.730 340.400,332.000 340.220,332.000 340.000 C 332.000 339.780,332.186 339.600,332.413 339.600 C 332.987 339.600,339.995 332.315,339.770 331.952 C 339.670 331.790,339.951 331.543,340.394 331.402 C 340.837 331.261,341.200 330.888,341.200 330.573 C 341.200 330.258,341.470 330.000,341.800 330.000 C 342.130 330.000,342.400 329.749,342.400 329.443 C 342.400 329.136,342.670 328.782,343.000 328.655 C 343.330 328.529,343.600 328.188,343.600 327.899 C 343.600 327.609,344.140 327.054,344.800 326.664 C 345.460 326.274,346.000 325.793,346.000 325.596 C 346.000 325.398,346.450 324.786,347.000 324.236 C 347.550 323.686,348.000 323.147,348.000 323.039 C 348.000 322.930,348.450 322.356,349.000 321.762 C 349.550 321.169,350.000 320.439,350.000 320.142 C 350.000 319.844,350.270 319.600,350.600 319.600 C 350.930 319.600,351.200 319.336,351.200 319.014 C 351.200 318.692,351.539 318.247,351.954 318.025 C 352.369 317.803,352.822 317.166,352.962 316.611 C 353.101 316.055,353.392 315.600,353.608 315.600 C 353.823 315.600,354.000 315.240,354.000 314.800 C 354.000 314.267,354.267 314.000,354.800 314.000 C 355.240 314.000,355.600 313.807,355.600 313.571 C 355.600 313.336,355.870 312.873,356.200 312.543 C 356.530 312.213,356.800 311.596,356.800 311.171 C 356.800 310.747,357.074 310.400,357.410 310.400 C 357.745 310.400,358.184 309.967,358.385 309.439 C 358.586 308.910,358.942 308.360,359.175 308.215 C 359.409 308.071,359.600 307.624,359.600 307.223 C 359.600 306.822,359.960 306.399,360.400 306.284 C 360.840 306.169,361.200 305.788,361.200 305.437 C 361.200 305.087,361.380 304.800,361.600 304.800 C 361.820 304.800,362.000 304.602,362.000 304.360 C 362.000 303.713,363.284 301.088,363.919 300.437 C 364.221 300.128,364.908 298.913,365.446 297.737 C 365.984 296.562,366.584 295.600,366.780 295.600 C 366.976 295.600,367.255 295.060,367.400 294.400 C 367.545 293.740,367.919 293.200,368.232 293.200 C 368.615 293.200,368.800 292.743,368.800 291.800 C 368.800 290.822,368.981 290.400,369.400 290.400 C 369.730 290.400,370.000 290.046,370.000 289.614 C 370.000 289.182,370.360 288.635,370.800 288.400 C 371.240 288.165,371.600 287.637,371.600 287.229 C 371.600 286.820,371.870 286.382,372.200 286.255 C 372.551 286.121,372.800 285.521,372.800 284.813 C 372.800 284.146,372.977 283.600,373.192 283.600 C 373.408 283.600,373.706 283.105,373.853 282.500 C 374.001 281.895,374.419 281.016,374.781 280.547 C 375.144 280.078,375.674 278.908,375.959 277.947 C 376.245 276.986,376.640 275.887,376.839 275.505 C 377.038 275.123,377.200 274.538,377.200 274.205 C 377.200 273.872,377.378 273.600,377.595 273.600 C 377.813 273.600,378.106 272.880,378.246 272.000 C 378.387 271.120,378.659 270.400,378.851 270.400 C 379.043 270.400,379.200 269.772,379.200 269.003 C 379.200 268.040,379.448 267.452,380.000 267.107 C 380.618 266.721,380.800 266.174,380.800 264.704 C 380.800 263.278,380.951 262.800,381.400 262.800 C 381.803 262.800,382.000 262.397,382.000 261.571 C 382.000 260.896,382.270 260.073,382.600 259.743 C 382.930 259.413,383.200 258.728,383.200 258.221 C 383.200 256.446,383.705 254.800,384.250 254.800 C 384.642 254.800,384.800 254.237,384.800 252.843 C 384.800 251.472,384.980 250.817,385.400 250.655 C 385.794 250.504,386.014 249.838,386.040 248.713 C 386.078 247.077,386.646 244.563,386.788 245.400 C 386.954 246.377,387.546 244.014,387.572 242.271 C 387.589 241.124,387.843 240.100,388.200 239.743 C 388.612 239.331,388.802 238.304,388.808 236.471 C 388.817 233.294,389.743 227.697,390.362 227.078 C 390.952 226.488,390.985 175.728,390.395 175.532 C 389.847 175.349,389.163 171.436,388.854 166.719 C 388.707 164.474,388.389 162.628,388.100 162.339 C 387.825 162.065,387.600 160.884,387.600 159.716 C 387.600 158.087,387.414 157.433,386.800 156.907 C 386.223 156.414,385.996 155.716,385.987 154.411 C 385.980 153.415,385.710 152.251,385.387 151.824 C 385.064 151.396,384.800 150.435,384.800 149.687 C 384.800 148.932,384.444 147.873,384.000 147.309 C 383.560 146.750,383.200 145.686,383.200 144.946 C 383.200 144.016,383.014 143.600,382.600 143.600 C 382.148 143.600,382.000 143.116,382.000 141.643 C 382.000 140.272,381.820 139.617,381.400 139.455 C 381.004 139.303,380.800 138.677,380.800 137.616 C 380.800 136.440,380.585 135.872,380.000 135.507 C 379.466 135.174,379.200 134.574,379.200 133.704 C 379.200 132.987,379.040 132.400,378.845 132.400 C 378.650 132.400,378.369 131.590,378.221 130.600 C 378.072 129.610,377.782 128.800,377.575 128.800 C 377.369 128.800,377.200 128.530,377.200 128.200 C 377.200 127.870,377.020 127.600,376.800 127.600 C 376.580 127.600,376.400 126.970,376.400 126.200 C 376.400 125.430,376.240 124.800,376.045 124.800 C 375.849 124.800,375.571 124.170,375.426 123.400 C 375.282 122.630,374.992 122.000,374.782 122.000 C 374.572 122.000,374.396 121.775,374.391 121.500 C 374.386 121.225,374.030 120.550,373.600 120.000 C 373.170 119.450,372.814 118.617,372.809 118.149 C 372.804 117.681,372.530 117.074,372.200 116.800 C 371.870 116.526,371.600 115.947,371.600 115.514 C 371.600 115.062,371.259 114.636,370.800 114.516 C 370.199 114.359,370.000 113.970,370.000 112.953 C 370.000 112.017,369.815 111.600,369.400 111.600 C 368.996 111.600,368.800 111.196,368.800 110.363 C 368.800 109.462,368.583 109.068,368.000 108.916 C 367.560 108.801,367.200 108.390,367.200 108.002 C 367.200 107.615,366.930 107.074,366.600 106.800 C 366.270 106.526,366.000 105.964,366.000 105.551 C 366.000 105.138,365.840 104.800,365.643 104.800 C 365.447 104.800,365.163 104.307,365.012 103.704 C 364.860 103.101,364.607 102.516,364.449 102.404 C 363.803 101.946,362.400 99.632,362.400 99.026 C 362.400 98.668,362.146 98.278,361.837 98.159 C 361.527 98.040,361.055 97.415,360.788 96.771 C 360.521 96.127,360.145 95.600,359.951 95.600 C 359.758 95.600,359.600 95.330,359.600 95.000 C 359.600 94.670,359.330 94.400,359.000 94.400 C 358.599 94.400,358.400 93.999,358.400 93.187 C 358.400 92.414,358.153 91.880,357.718 91.713 C 356.576 91.275,355.600 90.262,355.600 89.514 C 355.600 89.125,355.240 88.582,354.800 88.307 C 354.360 88.032,354.000 87.575,354.000 87.291 C 354.000 87.007,353.730 86.671,353.400 86.545 C 353.070 86.418,352.800 86.064,352.800 85.757 C 352.800 85.451,352.530 85.200,352.200 85.200 C 351.870 85.200,351.600 84.874,351.600 84.475 C 351.600 84.077,351.240 83.364,350.800 82.892 C 350.360 82.420,350.000 81.858,350.000 81.644 C 350.000 81.429,349.637 81.139,349.194 80.998 C 348.751 80.857,348.499 80.563,348.634 80.344 C 348.770 80.125,348.502 79.847,348.040 79.726 C 347.578 79.606,347.200 79.258,347.200 78.953 C 347.200 78.649,347.041 78.400,346.847 78.400 C 346.652 78.400,346.398 78.036,346.282 77.591 C 346.165 77.146,346.028 76.651,345.976 76.491 C 345.925 76.331,345.369 75.888,344.741 75.506 C 344.114 75.124,343.600 74.655,343.600 74.464 C 343.600 73.956,341.710 72.000,341.219 72.000 C 340.989 72.000,340.800 71.730,340.800 71.400 C 340.800 71.070,340.551 70.800,340.247 70.800 C 339.942 70.800,339.599 70.440,339.484 70.000 C 339.369 69.560,338.988 69.200,338.637 69.200 C 338.287 69.200,338.000 68.930,338.000 68.600 C 338.000 68.270,337.730 68.000,337.400 68.000 C 337.070 68.000,336.797 67.775,336.793 67.500 C 336.785 66.890,335.058 65.200,334.444 65.200 C 334.200 65.200,334.000 65.008,334.000 64.773 C 334.000 64.277,331.253 61.600,330.744 61.600 C 330.555 61.600,330.400 61.351,330.400 61.046 C 330.400 60.741,329.995 60.222,329.500 59.892 C 329.005 59.561,328.060 58.821,327.400 58.246 C 326.740 57.671,326.065 57.201,325.900 57.200 C 325.735 57.200,325.600 56.930,325.600 56.600 C 325.600 56.270,325.349 56.000,325.043 56.000 C 324.736 56.000,324.382 55.730,324.255 55.400 C 324.129 55.070,323.659 54.800,323.213 54.800 C 322.736 54.800,322.400 54.537,322.400 54.163 C 322.400 53.812,322.040 53.431,321.600 53.316 C 321.160 53.201,320.800 52.858,320.800 52.553 C 320.800 52.249,320.549 52.000,320.243 52.000 C 319.936 52.000,319.582 51.730,319.455 51.400 C 319.329 51.070,318.956 50.800,318.627 50.800 C 318.297 50.800,317.835 50.440,317.600 50.000 C 317.365 49.560,316.988 49.200,316.764 49.200 C 316.540 49.200,315.781 48.656,315.078 47.991 C 314.375 47.326,313.395 46.676,312.900 46.547 C 312.405 46.419,312.000 46.153,312.000 45.957 C 312.000 45.760,311.640 45.600,311.200 45.600 C 310.760 45.600,310.400 45.351,310.400 45.047 C 310.400 44.742,310.040 44.399,309.600 44.284 C 309.160 44.169,308.800 43.788,308.800 43.437 C 308.800 42.996,308.431 42.800,307.600 42.800 C 306.800 42.800,306.400 42.600,306.400 42.200 C 306.400 41.870,306.061 41.600,305.647 41.600 C 305.230 41.600,304.800 41.243,304.684 40.800 C 304.563 40.339,304.138 40.000,303.680 40.000 C 303.243 40.000,302.782 39.730,302.655 39.400 C 302.529 39.070,301.969 38.800,301.413 38.800 C 300.814 38.800,300.400 38.572,300.400 38.243 C 300.400 37.937,299.951 37.574,299.402 37.436 C 298.854 37.299,298.449 36.964,298.502 36.693 C 298.560 36.402,298.067 36.149,297.300 36.075 C 296.585 36.006,296.000 35.795,296.000 35.606 C 296.000 35.417,295.368 35.054,294.596 34.799 C 293.824 34.544,293.286 34.185,293.400 34.000 C 293.514 33.816,293.065 33.546,292.403 33.401 C 291.742 33.255,291.200 32.971,291.200 32.768 C 291.200 32.566,290.679 32.400,290.043 32.400 C 289.383 32.400,288.787 32.142,288.655 31.800 C 288.529 31.470,288.043 31.200,287.575 31.200 C 287.062 31.200,286.642 30.883,286.516 30.400 C 286.368 29.833,285.970 29.600,285.153 29.600 C 284.395 29.600,284.000 29.395,284.000 29.000 C 284.000 28.578,283.574 28.400,282.563 28.400 C 281.462 28.400,281.076 28.213,280.916 27.600 C 280.770 27.042,280.370 26.800,279.596 26.800 C 278.978 26.800,278.384 26.534,278.255 26.200 C 278.123 25.856,277.526 25.600,276.855 25.600 C 276.212 25.600,275.592 25.355,275.477 25.056 C 275.359 24.749,274.346 24.390,273.151 24.231 C 271.840 24.057,271.230 23.829,271.550 23.631 C 272.211 23.222,271.228 22.800,269.616 22.800 C 269.001 22.800,268.274 22.530,268.000 22.200 C 267.726 21.870,266.993 21.600,266.371 21.600 C 265.749 21.600,265.086 21.326,264.899 20.990 C 264.696 20.628,263.716 20.281,262.479 20.135 C 261.335 19.999,260.400 19.734,260.400 19.544 C 260.400 19.355,259.674 19.200,258.787 19.200 C 257.723 19.200,257.097 18.996,256.945 18.600 C 256.795 18.209,256.173 18.000,255.161 18.000 C 254.040 18.000,253.467 17.777,253.107 17.200 C 252.701 16.550,252.174 16.400,250.291 16.400 C 248.601 16.400,247.913 16.238,247.745 15.800 C 247.584 15.381,246.930 15.200,245.571 15.200 C 244.038 15.200,243.538 15.031,243.200 14.400 C 242.836 13.719,242.362 13.600,240.029 13.600 C 238.059 13.600,237.226 13.444,237.073 13.045 C 236.914 12.632,235.733 12.452,232.444 12.339 C 229.661 12.244,227.846 12.006,227.534 11.694 C 227.262 11.422,226.191 11.200,225.153 11.200 C 224.000 11.200,223.202 11.006,223.100 10.700 C 222.937 10.210,186.611 9.858,179.500 10.277 M216.800 64.343 C 230.097 66.423,239.379 68.741,248.400 72.232 C 250.930 73.212,253.118 74.010,253.262 74.006 C 253.599 73.998,261.696 77.777,263.800 78.924 C 264.680 79.404,266.586 80.427,268.036 81.198 C 285.036 90.239,305.508 108.203,315.309 122.679 C 316.139 123.905,317.354 125.585,318.009 126.412 C 319.123 127.818,319.607 129.600,318.875 129.600 C 317.691 129.600,306.857 137.093,301.411 141.677 C 288.690 152.387,284.572 166.267,289.034 183.400 C 289.607 185.600,290.160 187.760,290.263 188.200 C 290.387 188.730,289.733 189.984,288.325 191.916 C 287.156 193.519,285.120 196.477,283.800 198.490 C 279.282 205.377,273.298 210.480,269.738 210.480 C 266.919 210.480,258.931 208.252,250.400 205.085 C 245.737 203.355,235.547 198.170,230.110 194.761 C 228.740 193.902,227.553 193.200,227.471 193.200 C 226.704 193.200,209.521 180.840,204.000 176.317 C 202.601 175.171,200.953 173.812,195.758 169.522 C 184.931 160.581,183.654 159.570,177.600 155.148 C 167.740 147.945,153.202 145.336,136.483 147.770 C 134.347 148.080,131.070 148.446,129.200 148.582 C 124.723 148.908,115.665 149.919,103.800 151.418 C 101.380 151.724,97.960 152.085,96.200 152.220 C 92.095 152.535,63.940 155.990,63.560 156.225 C 61.677 157.389,61.737 155.397,63.708 151.327 C 64.648 149.387,65.724 147.080,66.100 146.200 C 72.225 131.858,86.201 113.226,100.443 100.417 C 110.167 91.671,117.481 86.580,130.600 79.428 C 133.069 78.081,140.605 74.609,142.673 73.865 C 143.513 73.563,145.910 72.679,148.000 71.901 C 158.667 67.928,173.243 64.660,185.600 63.471 C 191.043 62.948,211.542 63.520,216.800 64.343 M356.524 115.100 C 361.170 129.433,362.243 155.743,358.795 170.800 C 358.317 172.890,357.762 175.410,357.562 176.400 C 357.089 178.749,356.795 179.505,353.539 186.742 C 351.435 191.419,344.717 199.717,341.729 201.329 C 341.328 201.545,340.060 202.339,338.911 203.093 C 333.554 206.607,326.951 208.149,317.315 208.134 C 306.953 208.118,306.846 208.011,311.969 202.751 C 322.917 191.509,334.145 174.416,338.417 162.488 C 338.911 161.106,339.470 159.880,339.658 159.764 C 339.846 159.648,340.000 159.276,340.000 158.937 C 340.000 158.598,340.252 157.754,340.560 157.060 C 340.867 156.367,341.305 155.080,341.531 154.200 C 341.758 153.320,342.237 151.546,342.596 150.257 C 342.954 148.968,343.147 147.813,343.024 147.690 C 342.715 147.381,342.806 147.227,340.000 152.800 C 338.616 155.550,337.023 158.520,336.460 159.400 C 335.897 160.280,335.155 161.540,334.810 162.200 C 333.314 165.066,325.233 177.350,321.855 181.893 C 309.114 199.028,300.975 206.426,287.731 212.914 C 286.669 213.434,284.212 214.704,282.271 215.736 C 278.729 217.619,278.000 217.743,278.000 216.461 C 278.000 215.857,286.677 207.212,290.299 204.208 C 297.954 197.858,300.647 194.378,299.767 191.969 C 292.598 172.328,298.368 155.187,316.000 143.741 C 319.084 141.739,326.825 137.370,327.874 137.038 C 331.485 135.899,341.405 128.628,346.209 123.600 C 348.890 120.794,353.199 115.513,353.200 115.031 C 353.203 112.761,355.783 112.814,356.524 115.100 M157.138 159.409 C 161.231 160.073,167.632 162.821,170.627 165.200 C 171.492 165.887,174.242 167.892,176.738 169.654 C 179.233 171.417,182.867 174.061,184.812 175.530 C 186.756 176.998,190.647 179.910,193.456 182.000 C 196.266 184.090,199.413 186.520,200.449 187.400 C 202.079 188.784,205.571 191.571,212.123 196.717 C 213.046 197.441,214.118 198.297,214.507 198.619 C 215.129 199.134,217.231 200.635,220.400 202.827 C 220.950 203.208,222.750 204.383,224.400 205.439 C 227.023 207.118,228.629 208.018,234.200 210.935 C 235.262 211.491,238.668 213.052,242.200 214.601 C 244.413 215.572,253.367 218.476,256.600 219.272 C 261.218 220.409,261.972 221.617,258.876 222.922 C 256.046 224.115,246.020 227.600,245.418 227.600 C 245.085 227.600,243.234 228.072,241.306 228.648 C 239.378 229.225,235.460 230.288,232.600 231.012 C 229.740 231.735,225.960 232.725,224.200 233.211 C 222.440 233.697,219.740 234.360,218.200 234.683 C 213.907 235.585,212.896 235.824,208.800 236.909 C 206.710 237.463,203.470 238.218,201.600 238.588 C 199.730 238.957,195.500 239.873,192.200 240.624 C 188.900 241.374,184.580 242.253,182.600 242.577 C 180.620 242.901,177.470 243.462,175.600 243.826 C 169.592 244.992,166.274 245.571,163.000 246.024 C 161.240 246.268,157.147 246.902,153.905 247.434 C 145.948 248.738,138.512 248.509,135.279 246.859 C 134.905 246.669,134.060 246.411,133.400 246.286 C 130.533 245.743,122.553 241.294,116.560 236.896 C 115.583 236.179,114.202 235.279,113.491 234.896 C 112.780 234.513,111.478 233.703,110.599 233.095 C 109.719 232.487,108.100 231.397,107.000 230.671 C 100.112 226.130,81.544 213.233,73.545 207.434 C 72.305 206.535,69.915 204.810,68.233 203.600 C 58.467 196.573,60.272 197.957,45.000 185.780 C 29.280 173.245,28.902 171.542,41.545 170.202 C 46.663 169.659,50.390 169.207,58.000 168.204 C 60.310 167.899,63.640 167.543,65.400 167.413 C 69.374 167.118,74.807 166.483,89.400 164.608 C 92.040 164.269,97.800 163.629,102.200 163.186 C 106.600 162.743,112.180 162.125,114.600 161.812 C 136.628 158.963,149.796 158.219,157.138 159.409 M343.341 213.105 C 343.906 214.018,341.735 233.233,340.438 238.800 C 338.243 248.226,337.449 251.092,335.455 256.800 C 333.119 263.484,332.496 264.957,328.518 273.200 C 323.628 283.330,316.467 294.416,310.020 301.834 C 309.239 302.733,307.700 304.514,306.600 305.792 C 297.836 315.977,280.126 330.357,269.573 335.856 C 265.350 338.057,255.690 342.800,255.431 342.800 C 255.265 342.800,253.660 343.450,251.865 344.243 C 247.736 346.069,237.251 349.452,232.800 350.395 C 215.363 354.090,214.307 354.203,197.400 354.182 C 182.284 354.164,179.460 353.935,170.400 351.993 C 168.310 351.545,165.250 350.926,163.600 350.616 C 160.933 350.115,149.886 346.871,147.800 345.976 C 147.360 345.787,145.200 344.896,143.000 343.995 C 133.481 340.097,122.741 334.439,117.328 330.470 C 116.331 329.738,114.589 328.584,113.457 327.905 C 107.029 324.048,108.108 323.154,116.560 325.335 C 125.228 327.572,146.163 328.298,154.800 326.661 C 185.570 320.830,206.303 307.911,210.750 291.800 C 212.105 286.894,214.032 277.969,215.587 269.400 C 218.045 255.854,220.277 245.800,220.950 245.242 C 221.426 244.846,229.208 242.874,234.600 241.782 C 236.140 241.470,238.660 240.852,240.200 240.408 C 241.740 239.964,244.440 239.228,246.200 238.772 C 249.976 237.794,259.824 234.744,263.800 233.322 C 265.340 232.771,268.310 231.721,270.400 230.988 C 272.490 230.256,275.432 229.104,276.937 228.428 C 278.443 227.753,279.840 227.200,280.041 227.200 C 280.384 227.200,286.718 224.263,290.800 222.211 C 294.426 220.389,298.125 218.334,300.662 216.731 L 303.262 215.089 308.731 216.025 C 320.492 218.038,336.291 216.733,341.389 213.327 C 342.273 212.737,343.058 212.647,343.341 213.105 M72.537 221.400 C 73.953 222.390,75.200 223.200,75.309 223.200 C 75.586 223.200,91.297 233.594,94.172 235.679 C 95.477 236.626,96.752 237.490,97.006 237.600 C 97.260 237.710,100.663 239.960,104.568 242.600 C 123.067 255.107,128.007 258.072,132.800 259.545 C 136.715 260.749,143.270 261.385,146.173 260.843 C 147.479 260.599,149.485 260.400,150.632 260.400 C 152.709 260.400,157.264 259.625,166.000 257.786 C 168.530 257.254,171.410 256.703,172.400 256.563 C 173.390 256.422,176.630 255.700,179.600 254.957 C 182.570 254.214,187.160 253.151,189.800 252.595 C 192.440 252.039,195.770 251.313,197.200 250.981 C 209.562 248.114,209.004 247.609,206.533 259.439 C 205.526 264.258,204.469 269.660,204.184 271.445 C 203.898 273.230,203.478 275.390,203.250 276.245 C 203.021 277.100,202.176 280.500,201.372 283.800 C 199.539 291.319,197.561 295.378,193.907 299.116 C 190.557 302.545,178.305 309.600,175.701 309.600 C 175.303 309.600,174.623 309.835,174.189 310.123 C 171.773 311.725,160.094 314.669,151.686 315.795 C 139.141 317.476,122.191 315.483,110.834 310.992 C 108.898 310.226,107.112 309.600,106.865 309.600 C 104.352 309.600,89.727 300.906,82.748 295.264 C 65.719 281.496,61.516 272.054,64.200 253.600 C 64.750 249.819,65.199 245.977,65.199 245.063 C 65.198 244.148,65.477 241.510,65.818 239.200 C 67.322 229.019,67.586 227.210,68.033 224.000 C 68.740 218.917,68.874 218.840,72.537 221.400 " stroke="none" fill="#fbfbfb" fill-rule="evenodd"></path><path id="path3" d="M187.905 63.483 C 188.402 63.579,189.122 63.575,189.505 63.475 C 189.887 63.375,189.480 63.296,188.600 63.301 C 187.720 63.305,187.407 63.387,187.905 63.483 M206.305 63.483 C 206.802 63.579,207.522 63.575,207.905 63.475 C 208.287 63.375,207.880 63.296,207.000 63.301 C 206.120 63.305,205.807 63.387,206.305 63.483 M102.975 98.100 L 101.800 99.400 103.100 98.225 C 104.312 97.130,104.584 96.800,104.275 96.800 C 104.206 96.800,103.621 97.385,102.975 98.100 M292.000 97.725 C 292.000 97.794,292.585 98.379,293.300 99.025 L 294.600 100.200 293.425 98.900 C 292.330 97.688,292.000 97.416,292.000 97.725 M98.981 101.700 L 97.400 103.400 99.100 101.819 C 100.035 100.949,100.800 100.184,100.800 100.119 C 100.800 99.816,100.452 100.119,98.981 101.700 M296.783 102.100 C 297.764 103.145,298.619 104.000,298.683 104.000 C 298.984 104.000,298.666 103.641,296.900 101.983 L 295.000 100.200 296.783 102.100 M300.800 106.125 C 300.800 106.194,301.385 106.779,302.100 107.425 L 303.400 108.600 302.225 107.300 C 301.130 106.088,300.800 105.816,300.800 106.125 M89.578 111.100 L 88.200 112.600 89.700 111.222 C 91.096 109.938,91.384 109.600,91.078 109.600 C 91.012 109.600,90.337 110.275,89.578 111.100 M353.862 113.931 C 353.498 114.334,353.200 114.829,353.200 115.031 C 353.199 115.513,348.890 120.794,346.209 123.600 C 341.405 128.628,331.485 135.899,327.874 137.038 C 326.825 137.370,319.084 141.739,316.000 143.741 C 298.368 155.187,292.598 172.328,299.767 191.969 C 300.647 194.378,297.954 197.858,290.299 204.208 C 286.677 207.212,278.000 215.857,278.000 216.461 C 278.000 217.743,278.729 217.619,282.271 215.736 C 284.212 214.704,286.669 213.434,287.731 212.914 C 300.975 206.426,309.114 199.028,321.855 181.893 C 325.233 177.350,333.314 165.066,334.810 162.200 C 335.155 161.540,335.897 160.280,336.460 159.400 C 337.023 158.520,338.616 155.550,340.000 152.800 C 342.806 147.227,342.715 147.381,343.024 147.690 C 343.147 147.813,342.954 148.968,342.596 150.257 C 342.237 151.546,341.758 153.320,341.531 154.200 C 341.305 155.080,340.867 156.367,340.560 157.060 C 340.252 157.754,340.000 158.598,340.000 158.937 C 340.000 159.276,339.846 159.648,339.658 159.764 C 339.470 159.880,338.911 161.106,338.417 162.488 C 334.145 174.416,322.917 191.509,311.969 202.751 C 306.846 208.011,306.953 208.118,317.315 208.134 C 326.951 208.149,333.554 206.607,338.911 203.093 C 340.060 202.339,341.328 201.545,341.729 201.329 C 344.717 199.717,351.435 191.419,353.539 186.742 C 356.795 179.505,357.089 178.749,357.562 176.400 C 357.762 175.410,358.317 172.890,358.795 170.800 C 362.243 155.743,361.170 129.433,356.524 115.100 C 355.851 113.025,355.015 112.658,353.862 113.931 M356.111 115.312 C 356.221 115.800,356.771 118.270,357.334 120.800 C 361.699 140.412,360.778 167.878,355.303 181.400 C 347.755 200.042,335.752 208.079,316.295 207.518 C 308.836 207.303,308.374 207.089,310.659 204.914 C 312.540 203.123,318.481 196.478,320.238 194.200 C 330.323 181.123,341.939 159.920,342.008 154.464 C 342.013 154.099,342.462 152.540,343.007 151.000 C 343.963 148.296,344.293 146.000,343.726 146.000 C 343.257 146.000,341.600 147.715,341.600 148.200 C 341.600 148.823,337.380 156.978,335.949 159.120 C 335.317 160.066,334.800 160.958,334.800 161.102 C 334.800 161.840,323.800 178.567,320.268 183.200 C 308.163 199.080,300.955 205.630,289.200 211.433 C 287.550 212.247,284.808 213.712,283.107 214.687 C 276.237 218.628,277.782 216.323,288.600 206.493 C 300.609 195.579,301.384 194.556,300.196 191.189 C 298.288 185.780,297.814 182.732,297.807 175.800 C 297.797 166.138,298.941 162.533,304.648 154.233 C 307.764 149.701,320.617 140.605,328.200 137.565 C 329.080 137.212,331.283 136.005,333.095 134.883 C 341.168 129.883,348.272 123.025,354.227 114.479 C 354.957 113.432,355.769 113.791,356.111 115.312 M142.305 147.083 C 142.802 147.179,143.522 147.175,143.905 147.075 C 144.287 146.975,143.880 146.896,143.000 146.901 C 142.120 146.905,141.807 146.987,142.305 147.083 M136.800 159.416 C 130.253 159.893,125.323 160.425,114.600 161.812 C 112.180 162.125,106.600 162.743,102.200 163.186 C 97.800 163.629,92.040 164.269,89.400 164.608 C 74.807 166.483,69.374 167.118,65.400 167.413 C 63.640 167.543,60.310 167.899,58.000 168.204 C 50.390 169.207,46.663 169.659,41.545 170.202 C 28.902 171.542,29.280 173.245,45.000 185.780 C 60.272 197.957,58.467 196.573,68.233 203.600 C 69.915 204.810,72.305 206.535,73.545 207.434 C 81.544 213.233,100.112 226.130,107.000 230.671 C 108.100 231.397,109.719 232.487,110.599 233.095 C 111.478 233.703,112.780 234.513,113.491 234.896 C 114.202 235.279,115.583 236.179,116.560 236.896 C 122.553 241.294,130.533 245.743,133.400 246.286 C 134.060 246.411,134.905 246.669,135.279 246.859 C 138.512 248.509,145.948 248.738,153.905 247.434 C 157.147 246.902,161.240 246.268,163.000 246.024 C 166.274 245.571,169.592 244.992,175.600 243.826 C 177.470 243.462,180.620 242.901,182.600 242.577 C 184.580 242.253,188.900 241.374,192.200 240.624 C 195.500 239.873,199.730 238.957,201.600 238.588 C 203.470 238.218,206.710 237.463,208.800 236.909 C 212.896 235.824,213.907 235.585,218.200 234.683 C 219.740 234.360,222.440 233.697,224.200 233.211 C 225.960 232.725,229.740 231.735,232.600 231.012 C 235.460 230.288,239.378 229.225,241.306 228.648 C 243.234 228.072,245.085 227.600,245.418 227.600 C 246.020 227.600,256.046 224.115,258.876 222.922 C 261.972 221.617,261.218 220.409,256.600 219.272 C 253.367 218.476,244.413 215.572,242.200 214.601 C 238.668 213.052,235.262 211.491,234.200 210.935 C 228.629 208.018,227.023 207.118,224.400 205.439 C 222.750 204.383,220.950 203.208,220.400 202.827 C 217.231 200.635,215.129 199.134,214.507 198.619 C 214.118 198.297,213.046 197.441,212.123 196.717 C 205.571 191.571,202.079 188.784,200.449 187.400 C 199.413 186.520,196.266 184.090,193.456 182.000 C 190.647 179.910,186.756 176.998,184.812 175.530 C 182.867 174.061,179.233 171.417,176.738 169.654 C 174.242 167.892,171.492 165.887,170.627 165.200 C 163.438 159.490,155.182 158.078,136.800 159.416 M154.379 159.629 C 160.512 160.398,166.697 162.854,171.163 166.294 C 172.872 167.609,180.478 173.098,182.950 174.800 C 183.742 175.345,194.689 183.596,197.810 186.000 C 201.015 188.469,204.634 191.336,210.211 195.823 C 216.678 201.026,225.164 206.815,230.000 209.321 C 231.650 210.176,233.180 211.015,233.400 211.185 C 235.321 212.670,249.758 218.145,256.128 219.804 C 260.113 220.842,260.382 220.996,259.576 221.778 C 259.004 222.333,246.851 226.798,245.898 226.802 C 245.624 226.804,243.510 227.355,241.200 228.026 C 235.683 229.631,222.247 233.127,218.200 234.011 C 216.440 234.395,212.030 235.434,208.400 236.319 C 199.031 238.603,183.162 242.000,181.862 242.000 C 181.259 242.000,179.647 242.261,178.282 242.581 C 174.887 243.375,168.068 244.645,164.200 245.203 C 162.440 245.457,158.368 246.100,155.150 246.632 C 143.632 248.538,135.914 247.576,127.756 243.218 C 125.580 242.056,123.080 240.610,122.200 240.006 C 118.720 237.616,113.226 234.000,113.074 234.000 C 112.935 234.000,105.669 229.141,97.200 223.384 C 91.417 219.454,76.993 209.300,70.800 204.800 C 65.579 201.007,62.110 198.506,60.811 197.600 C 60.023 197.050,58.573 195.954,57.589 195.165 C 56.605 194.376,50.940 189.859,45.000 185.128 C 34.455 176.729,32.975 175.295,33.261 173.753 C 33.485 172.543,36.397 171.346,39.867 171.037 C 41.590 170.884,47.230 170.214,52.400 169.550 C 57.570 168.885,63.870 168.168,66.400 167.956 C 68.930 167.743,73.700 167.222,77.000 166.797 C 83.452 165.966,94.574 164.660,109.600 162.968 C 114.770 162.386,121.160 161.655,123.800 161.343 C 133.591 160.185,135.476 160.013,138.800 159.977 C 140.670 159.957,143.010 159.797,144.000 159.620 C 146.679 159.144,150.535 159.147,154.379 159.629 M277.785 205.700 L 275.800 207.800 277.900 205.815 C 279.851 203.971,280.183 203.600,279.885 203.600 C 279.822 203.600,278.877 204.545,277.785 205.700 M342.475 213.048 C 342.847 213.158,343.236 213.643,343.341 214.125 C 343.500 214.858,343.520 214.839,343.466 214.004 C 343.421 213.328,343.143 212.982,342.600 212.927 C 342.024 212.869,341.989 212.902,342.475 213.048 M315.300 217.076 C 315.685 217.176,316.315 217.176,316.700 217.076 C 317.085 216.975,316.770 216.893,316.000 216.893 C 315.230 216.893,314.915 216.975,315.300 217.076 M325.700 217.076 C 326.085 217.176,326.715 217.176,327.100 217.076 C 327.485 216.975,327.170 216.893,326.400 216.893 C 325.630 216.893,325.315 216.975,325.700 217.076 M68.902 220.100 C 68.684 220.375,68.293 222.130,68.033 224.000 C 67.586 227.210,67.322 229.019,65.818 239.200 C 65.477 241.510,65.198 244.148,65.199 245.063 C 65.199 245.977,64.750 249.819,64.200 253.600 C 61.516 272.054,65.719 281.496,82.748 295.264 C 89.727 300.906,104.352 309.600,106.865 309.600 C 107.112 309.600,108.898 310.226,110.834 310.992 C 122.191 315.483,139.141 317.476,151.686 315.795 C 160.094 314.669,171.773 311.725,174.189 310.123 C 174.623 309.835,175.303 309.600,175.701 309.600 C 176.720 309.600,186.956 304.571,189.600 302.771 C 195.836 298.526,199.041 293.360,201.372 283.800 C 202.176 280.500,203.021 277.100,203.250 276.245 C 203.478 275.390,203.898 273.230,204.184 271.445 C 204.469 269.660,205.526 264.258,206.533 259.439 C 209.004 247.609,209.562 248.114,197.200 250.981 C 195.770 251.313,192.440 252.039,189.800 252.595 C 187.160 253.151,182.570 254.214,179.600 254.957 C 176.630 255.700,173.390 256.422,172.400 256.563 C 171.410 256.703,168.530 257.254,166.000 257.786 C 157.264 259.625,152.709 260.400,150.632 260.400 C 149.485 260.400,147.479 260.599,146.173 260.843 C 143.270 261.385,136.715 260.749,132.800 259.545 C 128.007 258.072,123.067 255.107,104.568 242.600 C 100.663 239.960,97.260 237.710,97.006 237.600 C 96.752 237.490,95.477 236.626,94.172 235.679 C 91.297 233.594,75.586 223.200,75.309 223.200 C 75.200 223.200,73.953 222.390,72.537 221.400 C 69.735 219.442,69.492 219.355,68.902 220.100 M72.551 222.000 C 73.808 222.880,74.914 223.600,75.010 223.600 C 75.248 223.600,88.244 232.255,101.112 240.983 C 104.694 243.412,107.934 245.586,108.312 245.813 C 108.691 246.040,112.420 248.486,116.600 251.249 C 132.243 261.588,135.640 262.504,152.200 260.842 C 156.442 260.416,174.616 256.897,181.200 255.226 C 183.730 254.584,186.970 253.852,188.400 253.600 C 189.830 253.347,193.880 252.454,197.400 251.614 C 209.373 248.758,208.476 247.472,205.212 262.800 C 204.579 265.770,203.767 269.942,203.407 272.070 C 199.525 295.025,193.766 302.661,175.400 309.200 C 167.871 311.880,165.941 312.481,162.482 313.221 C 140.349 317.954,119.528 315.561,100.600 306.108 C 95.013 303.318,85.684 297.507,84.991 296.385 C 84.842 296.144,83.973 295.410,83.060 294.753 C 76.265 289.864,67.261 278.959,65.425 273.392 C 63.408 267.278,63.356 264.854,64.984 252.600 C 65.335 249.960,65.803 245.925,66.025 243.634 C 66.424 239.522,68.581 223.634,69.032 221.500 C 69.341 220.035,69.850 220.107,72.551 222.000 M109.200 324.258 C 109.200 324.474,109.785 325.179,110.500 325.825 L 111.800 327.000 110.600 325.602 C 109.940 324.833,109.355 324.128,109.300 324.035 C 109.245 323.943,109.200 324.043,109.200 324.258 M137.100 327.896 C 138.475 327.974,140.725 327.974,142.100 327.896 C 143.475 327.818,142.350 327.754,139.600 327.754 C 136.850 327.754,135.725 327.818,137.100 327.896 M188.300 354.289 C 189.015 354.378,190.185 354.378,190.900 354.289 C 191.615 354.201,191.030 354.128,189.600 354.128 C 188.170 354.128,187.585 354.201,188.300 354.289 M203.891 354.289 C 204.601 354.377,205.861 354.379,206.691 354.292 C 207.521 354.205,206.940 354.133,205.400 354.131 C 203.860 354.129,203.181 354.200,203.891 354.289 " stroke="none" fill="#7ca6b9" fill-rule="evenodd"></path><path id="path4" d="M354.240 114.462 C 349.910 120.666,346.629 124.339,341.791 128.400 C 336.991 132.429,336.402 133.003,338.990 131.130 C 343.290 128.018,351.406 119.639,353.373 116.282 C 354.573 114.235,355.392 113.890,355.709 115.300 C 359.175 130.755,359.400 132.800,359.400 148.800 C 359.400 160.087,359.283 162.851,358.660 166.326 C 358.253 168.596,358.000 170.533,358.098 170.631 C 359.595 172.128,360.620 143.207,359.416 133.447 C 357.682 119.390,355.749 112.300,354.240 114.462 M332.800 135.020 C 330.930 136.202,328.770 137.382,328.000 137.642 C 326.477 138.155,324.763 139.200,325.444 139.200 C 325.677 139.200,325.983 139.084,326.124 138.943 C 326.266 138.801,327.331 138.294,328.491 137.817 C 330.545 136.972,336.400 133.408,336.400 133.003 C 336.400 132.728,336.607 132.612,332.800 135.020 M321.600 140.956 C 314.239 145.139,307.006 150.804,304.648 154.233 C 302.142 157.877,300.883 160.022,300.086 162.008 C 298.653 165.577,299.083 165.292,300.738 161.574 C 304.160 153.887,311.930 146.348,321.477 141.450 C 323.268 140.531,325.255 139.209,324.800 139.238 C 324.690 139.245,323.250 140.018,321.600 140.956 M342.236 146.431 C 341.666 147.108,341.214 147.963,341.232 148.331 C 341.257 148.878,341.303 148.891,341.482 148.400 C 341.781 147.585,343.252 146.000,343.712 146.000 C 344.106 146.000,343.929 148.454,343.437 149.800 C 343.252 150.306,343.370 150.233,343.758 149.600 C 345.467 146.814,344.175 144.126,342.236 146.431 M338.387 154.085 C 337.442 155.908,336.209 158.120,335.648 159.000 C 335.086 159.880,334.286 161.230,333.871 162.000 C 333.455 162.770,332.757 164.030,332.318 164.800 C 331.579 166.098,331.577 166.132,332.286 165.268 C 332.707 164.756,333.489 163.496,334.023 162.468 C 334.557 161.441,335.203 160.330,335.458 160.000 C 336.293 158.919,340.441 151.108,340.271 150.937 C 340.179 150.846,339.331 152.262,338.387 154.085 M342.433 152.700 C 342.141 153.584,342.000 154.553,342.120 154.854 C 342.243 155.163,342.351 154.998,342.368 154.474 C 342.386 153.964,342.592 153.189,342.826 152.752 C 343.060 152.314,343.187 151.761,343.108 151.524 C 343.029 151.286,342.725 151.815,342.433 152.700 M340.037 160.122 C 338.677 163.621,336.013 169.540,334.105 173.300 C 334.021 173.465,334.033 173.600,334.132 173.600 C 334.750 173.600,342.355 156.222,341.925 155.792 C 341.844 155.710,340.994 157.659,340.037 160.122 M144.000 159.620 C 143.010 159.797,140.670 159.957,138.800 159.977 C 135.632 160.011,131.130 160.424,125.400 161.204 L 123.000 161.531 125.400 161.425 C 126.720 161.367,130.140 161.116,133.000 160.866 C 152.924 159.131,157.760 159.477,165.212 163.174 C 166.589 163.858,167.781 164.352,167.860 164.273 C 168.126 164.007,162.220 161.307,160.000 160.680 C 155.387 159.376,148.088 158.893,144.000 159.620 M120.300 161.882 C 120.795 161.978,121.605 161.978,122.100 161.882 C 122.595 161.787,122.190 161.709,121.200 161.709 C 120.210 161.709,119.805 161.787,120.300 161.882 M113.400 162.633 L 109.800 163.150 113.200 162.946 C 116.734 162.734,120.692 162.064,118.200 162.099 C 117.540 162.108,115.380 162.349,113.400 162.633 M106.400 163.451 C 106.070 163.539,103.910 163.763,101.600 163.949 C 97.557 164.276,97.512 164.290,100.400 164.314 C 102.050 164.328,104.840 164.105,106.600 163.818 C 108.360 163.531,109.170 163.295,108.400 163.294 C 107.630 163.293,106.730 163.364,106.400 163.451 M91.200 165.000 C 88.653 165.368,88.252 165.498,89.600 165.515 C 90.590 165.528,92.750 165.302,94.400 165.013 C 98.174 164.350,95.757 164.341,91.200 165.000 M169.400 165.384 C 170.060 165.957,171.320 166.915,172.200 167.513 C 176.207 170.235,181.979 174.442,182.201 174.802 C 182.337 175.021,182.641 175.200,182.879 175.200 C 183.431 175.200,181.252 173.471,176.707 170.306 C 174.729 168.928,172.275 167.160,171.255 166.378 C 168.942 164.605,167.795 163.990,169.400 165.384 M298.470 166.887 C 298.212 167.914,298.012 169.080,298.026 169.477 C 298.041 169.875,298.315 169.223,298.636 168.030 C 298.957 166.836,299.157 165.670,299.080 165.440 C 299.003 165.209,298.729 165.861,298.470 166.887 M81.600 166.212 C 79.877 166.496,79.196 166.714,80.000 166.723 C 80.770 166.732,82.840 166.505,84.600 166.218 C 86.613 165.889,87.207 165.700,86.200 165.707 C 85.320 165.713,83.250 165.941,81.600 166.212 M74.800 167.052 C 74.470 167.139,72.850 167.365,71.200 167.554 C 69.034 167.801,68.701 167.902,70.000 167.918 C 70.990 167.930,73.240 167.705,75.000 167.418 C 76.760 167.131,77.570 166.895,76.800 166.894 C 76.030 166.893,75.130 166.964,74.800 167.052 M329.290 169.500 C 328.614 170.545,327.507 172.255,326.830 173.300 C 326.152 174.345,325.669 175.200,325.756 175.200 C 325.939 175.200,329.716 169.677,330.378 168.442 C 331.183 166.937,330.550 167.553,329.290 169.500 M58.400 168.808 C 55.870 169.194,54.409 169.530,55.152 169.555 C 55.896 169.580,58.236 169.334,60.352 169.009 C 62.469 168.685,64.920 168.355,65.800 168.277 C 66.971 168.173,66.810 168.131,65.200 168.120 C 63.990 168.113,60.930 168.422,58.400 168.808 M47.400 170.194 C 45.640 170.466,44.830 170.699,45.600 170.714 C 46.370 170.728,48.440 170.505,50.200 170.218 C 51.960 169.931,52.770 169.697,52.000 169.698 C 51.230 169.700,49.160 169.923,47.400 170.194 M297.758 175.800 C 297.758 178.880,297.821 180.087,297.897 178.482 C 297.973 176.878,297.973 174.358,297.896 172.882 C 297.819 171.407,297.757 172.720,297.758 175.800 M38.333 171.196 C 30.209 172.240,31.065 174.029,45.000 185.128 C 50.940 189.859,56.605 194.376,57.589 195.165 C 58.573 195.954,60.023 197.050,60.811 197.600 C 62.110 198.506,65.579 201.007,70.800 204.800 C 74.531 207.511,84.510 214.611,85.847 215.506 C 88.048 216.979,87.390 216.229,84.900 214.425 C 80.235 211.047,73.727 206.391,71.200 204.625 C 69.770 203.626,67.250 201.814,65.600 200.598 C 63.950 199.383,61.881 197.896,61.003 197.295 C 59.572 196.313,53.664 191.700,49.400 188.234 C 48.520 187.519,44.941 184.648,41.447 181.853 C 34.666 176.430,33.600 175.366,33.600 174.017 C 33.600 172.943,36.284 171.635,38.600 171.579 C 39.480 171.558,41.010 171.397,42.000 171.220 L 43.800 170.900 42.200 170.903 C 41.320 170.904,39.580 171.036,38.333 171.196 M357.200 173.200 C 356.930 174.324,356.789 175.323,356.887 175.420 C 356.984 175.517,357.277 174.670,357.538 173.538 C 357.800 172.406,357.941 171.407,357.852 171.319 C 357.763 171.230,357.470 172.076,357.200 173.200 M183.614 175.525 C 183.629 175.829,193.200 182.891,193.200 182.598 C 193.200 182.497,191.040 180.803,188.400 178.832 C 185.760 176.862,183.606 175.374,183.614 175.525 M324.126 177.208 C 310.697 196.391,302.199 204.562,288.600 211.365 C 286.620 212.356,283.973 213.752,282.719 214.469 C 277.792 217.281,279.345 215.245,288.200 207.286 C 296.778 199.576,301.211 194.903,301.146 193.643 L 301.091 192.600 300.907 193.579 C 300.644 194.985,296.814 199.008,288.800 206.299 C 277.773 216.331,276.199 218.650,283.107 214.687 C 284.808 213.712,287.550 212.247,289.200 211.433 C 300.009 206.097,306.515 200.488,316.844 187.600 C 320.857 182.592,325.867 175.600,325.441 175.600 C 325.337 175.600,324.745 176.324,324.126 177.208 M331.800 177.200 C 331.459 177.860,331.269 178.400,331.379 178.400 C 331.489 178.400,331.859 177.860,332.200 177.200 C 332.541 176.540,332.731 176.000,332.621 176.000 C 332.511 176.000,332.141 176.540,331.800 177.200 M356.037 178.006 C 355.453 180.286,351.923 188.518,351.086 189.553 C 350.697 190.033,350.705 190.090,351.126 189.837 C 352.307 189.127,357.000 177.933,356.722 176.490 C 356.652 176.127,356.344 176.809,356.037 178.006 M298.040 182.080 C 297.987 182.989,298.834 186.899,299.040 186.693 C 299.129 186.604,298.950 185.376,298.641 183.965 C 298.333 182.554,298.062 181.706,298.040 182.080 M194.600 183.792 C 195.260 184.378,196.732 185.561,197.871 186.420 C 199.010 187.279,200.055 188.165,200.193 188.389 C 200.331 188.613,200.840 188.986,201.322 189.219 C 202.366 189.722,200.946 188.430,197.644 185.871 C 194.381 183.343,193.135 182.492,194.600 183.792 M327.153 184.700 C 326.651 185.525,324.971 187.884,323.420 189.943 C 319.651 194.946,318.792 196.180,320.183 194.600 C 322.906 191.505,328.794 183.200,328.265 183.200 C 328.155 183.200,327.655 183.875,327.153 184.700 M299.663 189.400 C 299.662 189.620,299.903 190.430,300.200 191.200 C 300.497 191.970,300.745 192.330,300.752 192.000 C 300.758 191.670,300.517 190.860,300.214 190.200 C 299.912 189.540,299.664 189.180,299.663 189.400 M202.400 189.705 C 202.400 189.925,207.215 193.935,212.736 198.312 C 215.637 200.612,228.314 209.200,228.809 209.200 C 228.976 209.200,230.528 209.989,232.257 210.953 C 233.986 211.918,235.850 212.825,236.400 212.971 C 236.950 213.116,236.230 212.622,234.800 211.872 C 233.370 211.123,231.030 209.894,229.600 209.140 C 223.700 206.033,210.642 196.643,203.100 190.085 C 202.715 189.750,202.400 189.579,202.400 189.705 M348.941 192.662 C 347.207 195.274,343.279 199.282,341.100 200.661 C 339.339 201.775,339.050 202.323,340.777 201.272 C 343.842 199.409,347.736 195.367,350.193 191.500 C 351.530 189.397,350.433 190.414,348.941 192.662 M315.756 199.505 C 312.776 202.815,310.245 205.882,312.400 203.572 C 315.510 200.238,319.259 196.000,319.098 196.000 C 318.996 196.000,317.492 197.577,315.756 199.505 M338.141 202.586 C 337.681 202.909,336.426 203.529,335.352 203.964 C 334.278 204.400,333.670 204.764,334.000 204.774 C 334.797 204.798,338.628 203.001,338.975 202.441 C 339.339 201.851,339.142 201.885,338.141 202.586 M309.826 205.684 C 308.820 207.121,309.591 207.332,316.491 207.510 C 323.312 207.685,328.719 206.959,332.039 205.422 C 333.591 204.703,332.889 204.842,328.600 206.101 C 326.231 206.797,324.619 206.930,318.133 206.962 C 310.171 207.001,309.505 206.884,310.319 205.582 C 310.988 204.509,310.591 204.592,309.826 205.684 M237.600 213.410 C 237.600 213.731,242.102 215.631,242.328 215.405 C 242.441 215.292,242.436 215.200,242.316 215.200 C 242.197 215.200,241.087 214.752,239.850 214.205 C 238.612 213.658,237.600 213.300,237.600 213.410 M242.833 215.755 C 243.054 215.962,252.375 219.215,253.400 219.444 C 254.784 219.753,252.453 218.798,247.809 217.154 C 243.800 215.735,242.385 215.338,242.833 215.755 M87.600 216.567 C 87.600 216.674,88.455 217.323,89.500 218.009 C 91.111 219.067,91.218 219.098,90.200 218.209 C 88.903 217.076,87.600 216.253,87.600 216.567 M256.400 220.251 C 259.920 221.176,259.914 221.173,259.024 221.829 C 258.596 222.143,258.439 222.400,258.675 222.400 C 259.212 222.400,260.188 221.255,259.898 220.965 C 259.594 220.660,255.522 219.603,254.800 219.641 C 254.470 219.658,255.190 219.933,256.400 220.251 M69.200 220.824 C 69.200 221.057,69.395 221.127,69.633 220.980 C 69.871 220.832,70.816 221.242,71.733 221.889 C 73.840 223.377,74.400 223.701,74.400 223.434 C 74.400 223.082,70.250 220.400,69.705 220.400 C 69.427 220.400,69.200 220.591,69.200 220.824 M94.207 221.211 C 94.359 221.457,95.680 222.445,97.142 223.405 C 98.604 224.366,102.750 227.143,106.357 229.576 C 109.963 232.009,113.010 234.000,113.129 234.000 C 113.427 234.000,109.743 231.331,106.779 229.400 C 102.440 226.573,100.152 225.047,97.007 222.882 C 95.315 221.717,94.055 220.965,94.207 221.211 M68.615 223.815 C 68.461 225.054,68.424 226.157,68.534 226.267 C 68.644 226.377,68.861 225.454,69.015 224.215 C 69.170 222.977,69.207 221.873,69.097 221.763 C 68.987 221.653,68.770 222.577,68.615 223.815 M253.485 223.875 C 251.332 224.661,249.639 225.373,249.724 225.457 C 249.878 225.612,257.639 222.895,257.960 222.573 C 258.349 222.184,257.204 222.517,253.485 223.875 M76.240 224.722 C 78.251 226.168,78.800 226.494,78.800 226.243 C 78.800 225.980,75.349 223.600,74.968 223.600 C 74.810 223.600,75.382 224.105,76.240 224.722 M246.000 226.400 C 245.196 226.657,245.157 226.723,245.800 226.732 C 246.240 226.738,246.960 226.589,247.400 226.400 C 248.419 225.962,247.368 225.962,246.000 226.400 M79.600 226.898 C 80.346 227.618,83.200 229.337,83.200 229.067 C 83.200 228.958,82.255 228.295,81.100 227.594 C 79.945 226.893,79.270 226.580,79.600 226.898 M68.101 228.200 C 68.105 229.080,68.187 229.393,68.283 228.895 C 68.379 228.398,68.375 227.678,68.275 227.295 C 68.175 226.913,68.096 227.320,68.101 228.200 M242.400 227.197 C 239.828 228.043,232.681 229.992,229.800 230.633 C 228.040 231.025,226.060 231.593,225.400 231.895 C 224.030 232.522,223.797 232.565,230.400 230.955 C 234.016 230.073,243.401 227.469,244.600 227.015 C 245.405 226.710,243.369 226.879,242.400 227.197 M83.785 229.575 C 84.149 230.165,92.800 235.794,92.800 235.442 C 92.800 235.349,91.225 234.246,89.300 232.990 C 87.375 231.734,85.279 230.343,84.643 229.899 C 84.006 229.455,83.620 229.309,83.785 229.575 M67.227 233.753 C 66.934 235.884,66.782 237.715,66.888 237.822 C 67.154 238.087,68.143 231.030,67.930 230.391 C 67.836 230.108,67.520 231.622,67.227 233.753 M220.200 233.200 C 218.880 233.604,218.070 233.949,218.400 233.966 C 218.730 233.983,220.170 233.651,221.600 233.229 C 223.030 232.807,223.840 232.462,223.400 232.463 C 222.960 232.464,221.520 232.796,220.200 233.200 M113.600 234.124 C 113.600 234.217,114.365 234.798,115.300 235.415 C 116.235 236.032,116.789 236.280,116.531 235.968 C 116.034 235.367,113.600 233.836,113.600 234.124 M214.000 234.600 C 212.170 235.305,212.878 235.310,215.400 234.609 C 216.558 234.288,216.979 234.055,216.400 234.057 C 215.850 234.059,214.770 234.303,214.000 234.600 M209.400 235.789 C 208.520 236.079,208.070 236.332,208.400 236.352 C 208.730 236.372,209.810 236.133,210.800 235.821 C 211.790 235.509,212.240 235.255,211.800 235.257 C 211.360 235.260,210.280 235.499,209.400 235.789 M94.200 236.588 C 95.408 237.646,96.800 238.553,96.800 238.282 C 96.800 238.201,95.945 237.551,94.900 236.836 C 93.462 235.852,93.292 235.792,94.200 236.588 M204.600 236.989 C 202.452 237.697,203.297 237.724,205.800 237.028 C 206.900 236.722,207.440 236.469,207.000 236.467 C 206.560 236.464,205.480 236.699,204.600 236.989 M121.426 239.463 C 125.529 242.218,131.974 245.509,133.800 245.782 C 135.176 245.988,135.082 245.915,133.130 245.263 C 130.595 244.417,125.969 241.972,121.921 239.341 C 120.448 238.384,119.109 237.600,118.947 237.600 C 118.784 237.600,119.900 238.438,121.426 239.463 M198.464 238.073 C 195.655 238.701,196.761 238.801,200.010 238.213 C 201.699 237.908,202.391 237.675,201.600 237.679 C 200.830 237.683,199.419 237.860,198.464 238.073 M66.226 241.600 C 66.067 243.470,65.572 247.790,65.127 251.200 C 64.682 254.610,64.258 258.480,64.184 259.800 L 64.050 262.200 64.384 260.000 C 65.707 251.306,66.975 239.503,66.677 238.657 C 66.589 238.405,66.386 239.730,66.226 241.600 M192.200 239.587 C 190.660 239.983,189.670 240.321,190.000 240.338 C 190.330 240.354,191.950 240.033,193.600 239.625 C 195.250 239.217,196.240 238.879,195.800 238.874 C 195.360 238.869,193.740 239.190,192.200 239.587 M99.444 240.071 C 99.641 240.390,106.013 244.796,108.326 246.213 C 108.697 246.440,112.420 248.883,116.600 251.643 C 126.434 258.136,131.528 260.871,133.600 260.771 C 133.930 260.755,133.210 260.394,132.000 259.970 C 128.425 258.715,124.731 256.625,116.638 251.274 C 112.437 248.497,108.691 246.040,108.314 245.813 C 107.937 245.586,105.734 244.115,103.418 242.544 C 101.102 240.973,99.313 239.860,99.444 240.071 M185.400 241.028 C 184.300 241.334,182.782 241.588,182.026 241.592 C 181.270 241.597,179.560 241.855,178.226 242.166 C 176.892 242.478,174.139 243.051,172.108 243.441 C 170.077 243.831,168.501 244.234,168.605 244.338 C 168.795 244.529,173.737 243.629,178.282 242.575 C 179.647 242.259,181.357 241.992,182.082 241.983 C 182.807 241.974,184.750 241.627,186.400 241.213 C 188.050 240.798,188.950 240.462,188.400 240.465 C 187.850 240.469,186.500 240.722,185.400 241.028 M162.800 245.012 C 160.589 245.377,160.221 245.512,161.400 245.529 C 162.280 245.541,164.170 245.309,165.600 245.015 C 168.838 244.347,166.850 244.345,162.800 245.012 M155.600 246.016 C 154.610 246.193,153.080 246.514,152.200 246.729 C 149.485 247.392,151.991 247.182,156.000 246.410 C 158.090 246.008,159.260 245.682,158.600 245.686 C 157.940 245.691,156.590 245.839,155.600 246.016 M136.000 246.400 C 136.330 246.613,136.870 246.788,137.200 246.788 C 137.733 246.788,137.733 246.745,137.200 246.400 C 136.870 246.187,136.330 246.012,136.000 246.012 C 135.467 246.012,135.467 246.055,136.000 246.400 M142.917 247.497 C 144.411 247.574,146.751 247.574,148.117 247.496 C 149.482 247.418,148.260 247.355,145.400 247.355 C 142.540 247.356,141.422 247.420,142.917 247.497 M206.343 250.028 C 207.097 250.330,207.235 250.605,207.035 251.403 C 206.897 251.952,206.703 253.255,206.603 254.300 C 206.466 255.732,206.581 255.476,207.067 253.259 C 207.746 250.168,207.573 249.581,206.000 249.631 C 205.670 249.642,205.824 249.821,206.343 250.028 M198.200 251.404 C 195.340 252.133,193.281 252.746,193.624 252.765 C 194.194 252.797,196.398 252.301,203.000 250.656 C 204.320 250.327,204.950 250.062,204.400 250.067 C 203.850 250.073,201.060 250.674,198.200 251.404 M187.400 253.820 C 181.751 255.037,180.001 255.510,181.000 255.550 C 181.440 255.567,183.138 255.225,184.773 254.791 C 186.408 254.356,188.208 253.986,188.773 253.969 C 189.893 253.936,193.377 252.888,192.400 252.878 C 192.070 252.875,189.820 253.299,187.400 253.820 M178.200 255.973 C 177.760 256.150,175.060 256.719,172.200 257.238 C 169.340 257.757,167.281 258.237,167.626 258.306 C 168.387 258.457,177.804 256.629,179.200 256.059 C 179.750 255.834,179.930 255.651,179.600 255.651 C 179.270 255.651,178.640 255.796,178.200 255.973 M205.892 257.604 C 205.758 258.372,205.267 260.710,204.802 262.800 C 204.336 264.890,203.602 268.670,203.170 271.200 C 202.738 273.730,202.118 276.850,201.792 278.132 C 201.467 279.415,201.212 280.675,201.227 280.932 C 201.280 281.868,202.289 278.054,202.962 274.373 C 203.341 272.298,204.280 267.571,205.049 263.870 C 205.817 260.168,206.376 256.929,206.291 256.673 C 206.206 256.417,206.026 256.836,205.892 257.604 M163.200 259.032 L 161.000 259.575 163.104 259.373 C 165.304 259.162,167.812 258.431,166.200 258.470 C 165.760 258.481,164.410 258.734,163.200 259.032 M157.000 260.208 C 155.569 260.509,155.085 260.715,155.800 260.718 C 156.460 260.721,157.900 260.492,159.000 260.209 C 161.570 259.549,160.136 259.548,157.000 260.208 M137.000 261.424 C 139.905 262.063,146.002 261.984,151.600 261.234 C 153.961 260.918,153.888 260.908,150.800 261.121 C 146.049 261.449,139.445 261.438,136.600 261.096 L 134.200 260.808 137.000 261.424 M63.709 264.000 C 63.709 264.990,63.787 265.395,63.882 264.900 C 63.978 264.405,63.978 263.595,63.882 263.100 C 63.787 262.605,63.709 263.010,63.709 264.000 M64.050 267.174 C 63.998 268.600,65.172 273.361,65.496 273.038 C 65.597 272.936,65.459 272.184,65.189 271.366 C 64.919 270.548,64.563 268.961,64.399 267.839 C 64.158 266.196,64.090 266.067,64.050 267.174 M65.627 273.904 C 65.592 274.552,67.179 277.940,67.655 278.234 C 67.854 278.357,67.681 277.770,67.269 276.929 C 66.857 276.088,66.325 274.950,66.087 274.400 C 65.849 273.850,65.642 273.627,65.627 273.904 M72.330 284.271 C 76.027 288.438,80.924 293.222,83.060 294.756 C 83.973 295.411,84.842 296.144,84.991 296.385 C 85.329 296.933,89.937 300.050,93.732 302.300 C 97.421 304.486,96.175 303.529,90.575 299.874 C 84.558 295.947,83.184 294.786,75.814 287.400 C 72.165 283.743,70.672 282.402,72.330 284.271 M200.244 284.444 C 199.846 285.990,199.595 287.328,199.685 287.419 C 199.776 287.509,200.178 286.321,200.578 284.778 C 200.978 283.235,201.230 281.896,201.137 281.804 C 201.044 281.711,200.643 282.899,200.244 284.444 M199.132 288.800 C 199.006 289.350,198.778 290.160,198.626 290.600 C 198.474 291.040,198.642 290.895,198.999 290.277 C 199.357 289.659,199.585 288.849,199.505 288.477 C 199.402 287.994,199.295 288.087,199.132 288.800 M197.881 291.900 C 197.789 292.065,197.209 293.100,196.591 294.200 C 195.974 295.300,195.654 296.020,195.881 295.800 C 196.460 295.239,198.522 291.600,198.262 291.600 C 198.144 291.600,197.972 291.735,197.881 291.900 M192.987 298.900 L 190.600 301.400 193.100 299.013 C 194.475 297.699,195.600 296.574,195.600 296.513 C 195.600 296.217,195.205 296.578,192.987 298.900 M188.228 302.600 C 187.145 303.370,186.396 304.000,186.564 304.000 C 186.888 304.000,190.400 301.557,190.400 301.332 C 190.400 301.082,190.192 301.204,188.228 302.600 M103.000 307.227 C 105.200 308.305,107.270 309.182,107.600 309.177 C 107.930 309.171,107.210 308.752,106.000 308.246 C 104.790 307.740,102.861 306.848,101.713 306.263 C 100.566 305.678,99.486 305.215,99.313 305.233 C 99.141 305.251,100.800 306.148,103.000 307.227 M179.040 307.258 C 178.183 307.710,176.563 308.401,175.440 308.793 C 169.400 310.903,168.373 311.307,168.566 311.500 C 168.682 311.616,170.177 311.163,171.889 310.495 C 173.600 309.826,175.630 309.073,176.400 308.821 C 178.014 308.294,181.596 306.436,181.000 306.436 C 180.780 306.436,179.898 306.805,179.040 307.258 M108.908 309.594 C 109.827 310.184,114.084 311.649,114.288 311.445 C 114.423 311.311,113.374 310.908,109.000 309.413 C 108.276 309.166,108.267 309.183,108.908 309.594 M114.826 311.736 C 115.857 312.876,132.691 315.629,138.000 315.524 C 139.650 315.492,140.280 315.410,139.400 315.343 C 130.363 314.651,126.253 314.131,122.000 313.142 C 115.348 311.595,114.560 311.441,114.826 311.736 M162.800 312.665 C 157.081 313.978,151.846 314.786,146.600 315.166 C 142.224 315.484,142.217 315.486,145.400 315.534 C 149.845 315.601,164.025 313.325,167.272 312.023 C 168.770 311.422,167.290 311.635,162.800 312.665 " stroke="none" fill="#5387a1" fill-rule="evenodd"></path></g></svg>